<svg xmlns="http://www.w3.org/2000/svg" viewBox="0 0 512 512">
  <defs>
    <linearGradient id="gsq" x1="100%" y1="100%" x2="0%" y2="0%">
      <stop offset="0%" style="stop-color:#0891b2"/>
      <stop offset="100%" style="stop-color:#1e3a8a"/>
    </linearGradient>
  </defs>

  <!-- Squircle 超椭圆背景 (iOS风格) -->
  <path d="M 256 32
           C 420 32 480 92 480 256
           C 480 420 420 480 256 480
           C 92 480 32 420 32 256
           C 32 92 92 32 256 32"
        fill="#f7f7f7"/>

  <!-- 单翼弧线 -->
  <path d="M 95 415 Q 50 155 445 60" fill="none" stroke="url(#gsq)" stroke-width="44" stroke-linecap="round"/>
  <path d="M 95 415 Q 68 195 425 100" fill="none" stroke="url(#gsq)" stroke-width="34" stroke-linecap="round" opacity="0.6"/>
  <path d="M 95 415 Q 88 240 400 148" fill="none" stroke="url(#gsq)" stroke-width="26" stroke-linecap="round" opacity="0.38"/>
  <path d="M 95 415 Q 115 285 365 200" fill="none" stroke="url(#gsq)" stroke-width="18" stroke-linecap="round" opacity="0.22"/>
  <path d="M 95 415 Q 150 330 320 260" fill="none" stroke="url(#gsq)" stroke-width="12" stroke-linecap="round" opacity="0.12"/>
</svg>
